<?xml version="1.0" encoding="utf-8"?>
<!-- Generator: Adobe Illustrator 22.1.0, SVG Export Plug-In . SVG Version: 6.00 Build 0)  -->
<!DOCTYPE svg PUBLIC "-//W3C//DTD SVG 1.1//EN" "http://www.w3.org/Graphics/SVG/1.1/DTD/svg11.dtd">
<svg version="1.1" id="Layer_1" xmlns="http://www.w3.org/2000/svg" xmlns:xlink="http://www.w3.org/1999/xlink" x="0px" y="0px"
	 viewBox="0 0 1332.1 612" style="enable-background:new 0 0 1332.1 612;" xml:space="preserve">
<style type="text/css">
	.st0{fill:none;stroke:#BCBEC0;stroke-miterlimit:10;}
</style>
<g>
	<g>
		<path class="st0" d="M1334.1,160.4c52.3,3.4,96,28,146.7,36.2c64.6,10.4,133.9-11.3,197-23.3c67.4-12.8,125.8-13.6,193.4-3.5
			c70.5,10.5,144.8,30.5,216.6,29.3c36.8-0.6,53.9-16,85.9-29.2c15.7-6.5,28.8-7.3,45.6-9.3c36.2-4.2,66.8-11.8,100.8-25.6
			c57.7-23.4,123.7-64.5,187.9-46.1c58.9,16.8,97.9,63.7,161,71.7"/>
		<path class="st0" d="M1334.1,175.3c52.7,3.7,97.9,27.6,149.4,35.7c64.3,10.1,131.7-11.1,194.3-23.4
			c67.1-13.2,125.6-13.6,192.8-3.6c70,10.4,144,30.4,215.2,29c36-0.7,55.9-16.1,87.9-28.4c15.7-6,29.1-7.2,45.8-9.2
			c36.1-4.4,67-12.1,101.1-25.6c58.2-23.1,125.7-64.5,190-46c58.3,16.8,95.7,63.7,158.5,71.6"/>
		<path class="st0" d="M1334.1,190.3c54.1,3.8,101.9,26.7,154.9,34.5c63.5,9.3,127.9-11,189.5-23.8
			c139.1-28.9,264.2,27.2,402.2,24.7c35.6-0.6,59.5-15.1,91.9-26.5c48.7-17.1,100-15.3,149.7-34.3c58.9-22.5,129.1-64.8,193.7-45.9
			c56.9,16.7,91.3,63.6,153.1,71.3"/>
		<path class="st0" d="M1334.1,205.2c56.3,3.7,107.4,25.3,162.7,32.8c62.2,8.4,123-10.9,183-24.4c135.5-30.4,258.6,25.4,393.3,23.6
			c36.1-0.5,63.9-14.1,97.7-24c51.3-15.1,102.7-14.5,154.3-33.3c59.8-21.9,133.7-65.3,198.7-45.7c54.9,16.6,85.3,63.4,145.4,71"/>
		<path class="st0" d="M1334.1,220.1c59.1,3.5,113.9,23.8,172.2,30.9c60.7,7.4,117.1-10.9,175.2-25.2
			c130.8-32.2,251.6,23,382.2,22.2c37.2-0.2,69-12.5,104.6-20.9c54.2-12.6,106.4-13.4,160.2-32.1c61-21.2,139-65.7,204.5-45.4
			c52.5,16.3,77.9,63.1,136.1,70.5"/>
		<path class="st0" d="M1334.1,235.1c62.2,3.2,121.2,22.1,182.8,28.6c59,6.2,110.8-10.8,166.6-26.2c125.1-34.4,244,20.5,369.6,20.6
			c38.9,0,74.5-10.6,112.4-17.4c57.1-10.3,110.7-12.1,167-30.6c61.5-20.3,145.7-67,210.8-45.1c49.7,16.7,69.6,62.7,125.7,70.1"/>
		<path class="st0" d="M1334.1,250c65.7,2.8,128.7,20.4,193.9,26.3c57.7,5.3,103.8-11.3,157.7-27.1
			c119.7-35.2,235.7,18.2,356.4,18.9c41,0.2,80.1-8.4,120.5-13.8c60-7.9,115.2-10.7,174.1-29.1c61.9-19.3,152.9-68.6,217.5-44.8
			c46.9,17.3,60.6,62.3,114.9,69.6"/>
		<path class="st0" d="M1334.1,264.9c69.1,2.5,136.1,18.6,204.8,24c56.1,4.4,97.4-10.9,148.9-28.1c113-37.6,228.5,15.5,343.4,17.3
			c99.9,1.5,214.9-9.7,309.6-37.8c61.9-18.4,160.5-70.2,224-44.5c44.2,17.9,51.4,61.9,104.3,69.1"/>
		<path class="st0" d="M1334.1,279.9c72.3,2.1,142.9,17,214.9,21.9c54.7,3.7,91.5-10.4,140.7-29c106.1-40.1,222.4,13.3,331.4,15.8
			c105.8,2.4,222.3-4.5,323.5-33.2c38.8-11,77.3-23.5,116.3-33.5c32.1-8.3,80.8-25.4,113.8-10.7c41.9,18.7,42.5,61.4,94.3,68.6"/>
		<path class="st0" d="M1334.1,294.8c75.1,1.9,148.9,15.6,223.7,20.1c53.8,3.2,86.3-9.5,133.4-29.7c99.4-42.5,217.7,11.6,321.3,14.5
			c110.8,3.1,228.5,0,335.3-29.1c40.2-11,80-23.3,120.4-33.4c31.2-7.7,83.2-26.2,115.2-10.6c36.8,18,35,71,85.7,68.2"/>
		<path class="st0" d="M1334.1,309.8c77.3,1.8,153.4,14.5,230.5,18.6c53.1,2.9,82.3-8.6,127.6-30.2c93.7-44.7,214.9,10.5,313.7,13.6
			c114.7,3.6,233,3.2,344.1-26.1c41.3-10.9,82.2-23.2,123.8-33.2c30.3-7.3,85.2-26.9,116.2-10.6c35,18.5,28.4,71.2,79.1,67.9"/>
		<path class="st0" d="M1334.1,324.7c78.6,2,156.3,13.7,234.7,17.7c52.8,2.7,79.7-7.7,123.8-30.5c89.5-46.3,214,10,309.6,13
			c117,3.7,235.3,5,349-24.4c42.1-10.9,83.8-23.1,126.1-33.1c29.7-7,86.5-27.4,116.8-10.5c34,18.9,23.8,71.5,74.9,67.8"/>
		<path class="st0" d="M1333.8,339.6c78.8,1.9,156.8,13.8,235.5,17.8c52.7,2.7,79.4-7.7,123.3-30.6c88.9-46.4,214.1,9.8,309.3,12.8
			c117.6,3.6,235,5.1,349.4-24.1c42.1-10.7,84-22.7,126.3-32.6c29.8-7,86.7-27.5,117-10.4c33.9,19,23,70.3,74.2,67.2"/>
		<path class="st0" d="M1330.7,353.8c78.3,1.6,155.4,15.4,233.5,19.5c53.1,2.9,82.4-9,127.7-30.6c92.4-44.1,215,7.9,312.9,11
			c116.4,3.7,231.6,5.4,345.1-22.6c41.2-10.2,82.1-21.5,123.4-30.9c30.6-7,85.6-26.6,116.5-10c34,18.2,26.2,65.4,75.7,63.6"/>
		<path class="st0" d="M1325,367.4c77.4,1.8,153.1,17.7,230.2,22.6c54.2,3.4,87.5-10.2,135.1-30.3c97.3-41.2,218.5,4.5,320.6,7.5
			c113.9,3.4,224.9,6.8,336.4-19.5c39.8-9.4,79.3-19.8,119.2-28.4c31.3-6.8,83.3-24.6,115-9.3c34.2,16.5,31.2,58.6,78.4,57.5"/>
		<path class="st0" d="M1317,380.5c76.2,2.3,150,20.8,225.8,26.6c55.9,4.3,94.3-11.1,144.7-29.9c102.7-38.1,224.5,0,331.3,2.8
			c110.2,2.9,215.7,8.7,324.4-15.1c38-8.3,75.8-17.7,114-25.4c32.1-6.5,80.3-21.7,112.8-8.4c35.5,14.5,38.2,43.6,81.9,49.4"/>
		<path class="st0" d="M1307.6,393.3c74.8,3.1,146.4,24.3,220.6,31.3c58.2,5.5,102.4-11.8,156-29.2c108.3-35.2,232.4-5.3,344.3-2.8
			c105.7,2.4,205,11.1,309.9-9.8c63.5-12.7,154.7-49.7,218-29.3c34.6,11.1,45.8,35.8,86.1,39.9"/>
		<path class="st0" d="M1297.3,405.9c73.3,4.1,142.4,28,215,36.4c60.3,7,111.7-11.5,168.3-28.5c112.6-33.8,242.3-11.2,358.5-9
			c100.6,1.9,193.4,13.7,294-4c64.3-11.3,143.7-39.3,208.5-24.5c33.8,7.7,53.5,27.1,90.7,29.5"/>
		<path class="st0" d="M1286.7,418.4c71.8,5.1,138.3,31.9,209.2,41.7c63.1,8.7,120.9-11.8,180.9-27.7
			c117.8-31.4,252.1-17.3,373.2-15.3c95.2,1.6,181.7,16.2,277.7,2c64.1-9.5,133.9-28.5,198.8-19.5c33.5,4.6,60.4,17.9,95.3,18.9"/>
		<path class="st0" d="M1276.4,431c70.5,6,134.3,35.6,203.6,46.7c65.7,10.6,129.9-11.9,193-27c123-29.5,261.2-22.2,387.3-21.4
			c36.4,0.2,71.1,6.8,107.1,11.2c51.8,6.3,103.1,2.7,154.8-3.3c62.7-7.3,126.1-18.4,189.4-14.7c33.8,1.9,65.6,8.7,99.8,8.6"/>
		<path class="st0" d="M1267.2,443.8c69.3,6.8,130.6,39,198.5,51.4c67.9,12.3,138.3-12,204.1-26.4c64.7-14.2,127.9-15.4,193.7-18.3
			c68.5-3,137.6-8.9,206.2-8.6c34.5,0.2,66.3,7.7,100.1,12.9c48.9,7.5,98.6,4.2,147.6,0.1c95.2-8,189.4-8.2,284.7-11.1"/>
		<path class="st0" d="M1259.5,457c68.5,7.3,127.5,42,194.2,55.2c69.7,13.8,145.5-12.1,213.5-26c66.7-13.6,132.3-15.2,200-19.4
			c69.7-4.3,140.4-12.4,210.3-12c33,0.2,62.2,8.4,94.3,14.4c46.5,8.7,95,5.3,141.8,2.8c93.7-4.9,187.3-10.7,280.9-15.1"/>
		<path class="st0" d="M1253.3,473.7c68.1,7.4,124.7,44.6,190.6,58.5c71,15,151.8-12.4,221.5-25.7c68.3-13.1,135.6-14.9,204.6-20.1
			c70.7-5.4,142.7-15.5,213.7-15c32.2,0.2,58.4,9.1,89.3,15.7c44.7,9.4,92.3,5.7,137.6,4.9c55.4-1,112.3,2.5,167.3-2.9
			c37.3-3.7,72.5-13.4,110.2-15.3"/>
		<path class="st0" d="M1251.5,491.4c68.1,7,123.5,45.7,189.3,59.6c71.3,15.1,154.5-12.8,224.6-25.7
			c68.7-12.6,136.2-14.4,205.4-20.1c71.1-5.9,143.3-16.9,214.8-16.2c32.2,0.3,56.8,9.2,87.5,16.2c44.3,10.1,92,5.2,137,5.2
			c54.4-0.1,110.9,4.7,164.8-1.2c38.1-4.2,72.6-16.3,111.5-17.7"/>
		<path class="st0" d="M1254.7,510.2c67.3,7.5,123.9,43.3,189.2,57c70.6,14.8,154-11.4,223.9-22.7c68.4-11.1,135.9-13.1,204.6-19.4
			c69.5-6.4,140-18,210-17.2c32.9,0.4,57.7,9.6,89,16.9c44.4,10.3,92.5,5.6,137.6,4.9c54.8-0.9,111.3,3,165.7-2.5
			c39-3.9,75.3-15.4,114.9-16.9"/>
		<path class="st0" d="M1261.9,529.9c66.5,7,124.3,39.2,189.2,51.7c70.3,13.5,152.2-8.4,222.4-17.4c67-8.5,134.1-10,201.1-17.3
			c66.3-7.2,133.5-19.9,200.5-19.1c34.1,0.4,59.7,10.5,92.1,18.3c45.1,10.8,93.8,5.9,139.6,4.1c55.8-2.2,112.7-0.2,168.3-4.9
			c41.1-3.5,80.3-13.8,121.8-15.3"/>
		<path class="st0" d="M1272.1,550.3c65.7,5.9,124.7,33.8,189.1,44.4c70.4,11.6,149.7-4.5,220.4-10.2c65.1-5.3,130.8-5.6,195.6-14.2
			c62-8.2,124.7-22.4,187.5-21.8c35.5,0.4,62.6,11.5,96.2,20.2c46,11.9,96,6.1,142.7,2.9c57.4-3.9,115-4.2,172.3-8.2
			c44-3,86.9-11.8,131.2-13.2"/>
		<path class="st0" d="M1284.2,571.2c64.9,4.3,125,27.5,189.1,35.9c70.7,9.3,146.8-0.1,218-2c63.1-1.7,126.4-0.2,188.9-10.4
			c56.7-9.3,114.5-25.7,172.4-24.9c37.2,0.5,65.9,12.9,101,22.4c47.5,12.8,98.2,6.3,146.4,1.6c105.4-10.3,213.3-20.3,319.3-22.6"/>
		<path class="st0" d="M1297,592.2c64.2,2.7,125.4,20.9,189,26.9c71,6.7,144.1,4.4,215.4,6.6c61.3,1.9,121.3,6,181.6-6.4
			c51.4-10.6,103.3-28.6,156.4-28.2c39,0.3,69.5,14.6,106.1,24.8c49.2,13.6,100.5,6.5,150.4,0.2c111-14.1,224-22.4,336-23.9"/>
		<path class="st0" d="M1309.4,613.2c63.6,1.1,125.6,14.5,188.9,18.2c71.2,4.2,141.9,8.7,213,15.1c59.8,5.4,115.9,11.8,174.6-2.6
			c46.7-11.4,91.9-31.3,140.8-31.4c40.6-0.1,73.1,16.2,111.1,27c50.9,14.5,102.8,6.8,154.3-1.2c116.9-18.1,233.9-24.5,352.3-25.1"/>
		<path class="st0" d="M1320.4,633.8c133.3-0.1,267.9,14,399.6,33.1c58,8.4,111.8,17.9,168.6,0.8c42.4-12.8,81.5-33.8,126.9-34.3
			c41.9-0.4,76.4,17.7,115.6,29.1c52.5,15.3,104.7,7,157.6-2.4c122.4-21.8,242.3-26.3,366.7-26.3"/>
		<path class="st0" d="M1328.8,653.8c135.2-1.4,265.2,7.7,397.8,33c56,10.7,109.4,22.9,164.3,3.3c39.4-14.1,72.7-35.8,116-36.5
			c43-0.7,79,18.8,119,30.7c53.6,15.9,106,7.3,160.1-3.3c65.1-12.8,127.8-25.8,194.6-25.9c61-0.1,122.1-1.5,183.1-1.3"/>
		<path class="st0" d="M1333.5,672.9c62.9-0.5,125.8,0.8,188.8,0.7c72-0.1,138.3,17,208,32.6c54.4,12.2,109,26,162.5,4.6
			c38-15.2,66.5-37.1,109.4-37.8c43.7-0.8,80.4,19.5,121.1,31.7c54.1,16.2,106.7,7.5,161.2-3.8c65.7-13.7,128.5-27.6,196.1-27.6
			c62.6,0,125.3-0.3,187.9-0.2"/>
		<path class="st0" d="M1334.1,691.2c62.8-0.3,125.5,0.5,188.2,0.5c71.9-0.1,138.2,17,207.9,32.6c54.7,12.3,108.7,25.6,162.5,4.5
			c37.7-14.8,67.2-36.5,109.6-37.2c43.3-0.8,80.7,19.3,121.1,31.1c54.3,15.9,106.5,8.1,161.2-3.8c65.7-14.2,128.4-28.4,196.1-28.5
			c62.8-0.1,125.6,1.5,188.4,0.9"/>
		<path class="st0" d="M1334.1,709.3c61.9-0.4,123.7,2.4,185.6,2.7c71.1,0.3,138,15.4,207.4,29c56.3,11,108.3,21.6,163.8,3.9
			c38.9-12.4,74.4-32.3,116.4-33c41.6-0.7,79.4,17,118.8,27.2c54.6,14.2,106,7.3,160.5-5.2c65.5-15,127.9-30.6,195.7-30
			c62.3,0.6,124.3,6.1,186.7,5.4"/>
	</g>
	<g>
		<path class="st0" d="M-1.2,160.4c52.3,3.4,96,28,146.7,36.2c64.6,10.4,133.9-11.3,197-23.3c67.4-12.8,125.8-13.6,193.4-3.5
			c70.5,10.5,144.8,30.5,216.6,29.3c36.8-0.6,53.9-16,85.9-29.2c15.7-6.5,28.8-7.3,45.6-9.3c36.2-4.2,66.8-11.8,100.8-25.6
			c57.7-23.4,123.7-64.5,187.9-46.1c58.9,16.8,97.9,63.7,161,71.7"/>
		<path class="st0" d="M-1.2,175.3c52.7,3.7,97.9,27.6,149.4,35.7c64.3,10.1,131.7-11.1,194.3-23.4C409.5,174.4,468,174,535.3,184
			c70,10.4,144,30.4,215.2,29c36-0.7,55.9-16.1,87.9-28.4c15.7-6,29.1-7.2,45.8-9.2c36.1-4.4,67-12.1,101.1-25.6
			c58.2-23.1,125.7-64.5,190-46c58.3,16.8,95.7,63.7,158.5,71.6"/>
		<path class="st0" d="M-1.2,190.3c54.1,3.8,101.9,26.7,154.9,34.5c63.5,9.3,127.9-11,189.5-23.8c139.1-28.9,264.2,27.2,402.2,24.7
			c35.6-0.6,59.5-15.1,91.9-26.5c48.7-17.1,100-15.3,149.7-34.3c58.9-22.5,129.1-64.8,193.7-45.9c56.9,16.7,91.3,63.6,153.1,71.3"/>
		<path class="st0" d="M-1.2,205.2c56.3,3.7,107.4,25.3,162.7,32.8c62.2,8.4,123-10.9,183-24.4C480,183.2,603,239,737.8,237.2
			c36.1-0.5,63.9-14.1,97.7-24c51.3-15.1,102.7-14.5,154.3-33.3c59.8-21.9,133.7-65.3,198.7-45.7c54.9,16.6,85.3,63.4,145.4,71"/>
		<path class="st0" d="M-1.2,220.1c59.1,3.5,113.9,23.8,172.2,30.9c60.7,7.4,117.1-10.9,175.2-25.2c130.8-32.2,251.6,23,382.2,22.2
			c37.2-0.2,69-12.5,104.6-20.9c54.2-12.6,106.4-13.4,160.2-32.1c61-21.2,139-65.7,204.5-45.4c52.5,16.3,77.9,63.1,136.1,70.5"/>
		<path class="st0" d="M-1.2,235.1c62.2,3.2,121.2,22.1,182.8,28.6c59,6.2,110.8-10.8,166.6-26.2c125.1-34.4,244,20.5,369.6,20.6
			c38.9,0,74.5-10.6,112.4-17.4c57.1-10.3,110.7-12.1,167-30.6c61.5-20.3,145.7-67,210.8-45.1c49.7,16.7,69.6,62.7,125.7,70.1"/>
		<path class="st0" d="M-1.2,250c65.7,2.8,128.7,20.4,193.9,26.3c57.7,5.3,103.8-11.3,157.7-27.1C470.1,214,586,267.4,706.8,268.1
			c41,0.2,80.1-8.4,120.5-13.8c60-7.9,115.2-10.7,174.1-29.1c61.9-19.3,152.9-68.6,217.5-44.8c46.9,17.3,60.6,62.3,114.9,69.6"/>
		<path class="st0" d="M-1.2,264.9c69.1,2.5,136.1,18.6,204.8,24c56.1,4.4,97.4-10.9,148.9-28.1c113-37.6,228.5,15.5,343.4,17.3
			c99.9,1.5,214.9-9.7,309.6-37.8c61.9-18.4,160.5-70.2,224-44.5c44.2,17.9,51.4,61.9,104.3,69.1"/>
		<path class="st0" d="M-1.2,279.9c72.3,2.1,142.9,17,214.9,21.9c54.7,3.7,91.5-10.4,140.7-29c106.1-40.1,222.4,13.3,331.4,15.8
			c105.8,2.4,222.3-4.5,323.5-33.2c38.8-11,77.3-23.5,116.3-33.5c32.1-8.3,80.8-25.4,113.8-10.7c41.9,18.7,42.5,61.4,94.3,68.6"/>
		<path class="st0" d="M-1.2,294.8c75.1,1.9,148.9,15.6,223.7,20.1c53.8,3.2,86.3-9.5,133.4-29.7c99.4-42.5,217.7,11.6,321.3,14.5
			c110.8,3.1,228.5,0,335.3-29.1c40.2-11,80-23.3,120.4-33.4c31.2-7.7,83.2-26.2,115.2-10.6c36.8,18,35,71,85.7,68.2"/>
		<path class="st0" d="M-1.2,309.8c77.3,1.8,153.4,14.5,230.5,18.6c53.1,2.9,82.3-8.6,127.6-30.2c93.7-44.7,214.9,10.5,313.7,13.6
			c114.7,3.6,233,3.2,344.1-26.1c41.3-10.9,82.2-23.2,123.8-33.2c30.3-7.3,85.2-26.9,116.2-10.6c35,18.5,28.4,71.2,79.1,67.9"/>
		<path class="st0" d="M-1.2,324.7c78.6,2,156.3,13.7,234.7,17.7c52.8,2.7,79.7-7.7,123.8-30.5c89.5-46.3,214,10,309.6,13
			c117,3.7,235.3,5,349-24.4c42.1-10.9,83.8-23.1,126.1-33.1c29.7-7,86.5-27.4,116.8-10.5c34,18.9,23.8,71.5,74.9,67.8"/>
		<path class="st0" d="M-1.5,339.6c78.8,1.9,156.8,13.8,235.5,17.8c52.7,2.7,79.4-7.7,123.3-30.6c88.9-46.4,214.1,9.8,309.3,12.8
			c117.6,3.6,235,5.1,349.4-24.1c42.1-10.7,84-22.7,126.3-32.6c29.8-7,86.7-27.5,117-10.4c33.9,19,23,70.3,74.2,67.2"/>
		<path class="st0" d="M-4.5,353.8c78.3,1.6,155.4,15.4,233.5,19.5c53.1,2.9,82.4-9,127.7-30.6c92.4-44.1,215,7.9,312.9,11
			c116.4,3.7,231.6,5.4,345.1-22.6c41.2-10.2,82.1-21.5,123.4-30.9c30.6-7,85.6-26.6,116.5-10c34,18.2,26.2,65.4,75.7,63.6"/>
		<path class="st0" d="M-10.3,367.4c77.4,1.8,153.1,17.7,230.2,22.6c54.2,3.4,87.5-10.2,135.1-30.3c97.3-41.2,218.5,4.5,320.6,7.5
			c113.9,3.4,224.9,6.8,336.4-19.5c39.8-9.4,79.3-19.8,119.2-28.4c31.3-6.8,83.3-24.6,115-9.3c34.2,16.5,31.2,58.6,78.4,57.5"/>
		<path class="st0" d="M-18.2,380.5c76.2,2.3,150,20.8,225.8,26.6c55.9,4.3,94.3-11.1,144.7-29.9c102.7-38.1,224.5,0,331.3,2.8
			c110.2,2.9,215.7,8.7,324.4-15.1c38-8.3,75.8-17.7,114-25.4c32.1-6.5,80.3-21.7,112.8-8.4c35.5,14.5,38.2,43.6,81.9,49.4"/>
		<path class="st0" d="M-27.7,393.3c74.8,3.1,146.4,24.3,220.6,31.3c58.2,5.5,102.4-11.8,156-29.2c108.3-35.2,232.4-5.3,344.3-2.8
			c105.7,2.4,205,11.1,309.9-9.8c63.5-12.7,154.7-49.7,218-29.3c34.6,11.1,45.8,35.8,86.1,39.9"/>
		<path class="st0" d="M-38,405.9c73.3,4.1,142.4,28,215,36.4c60.3,7,111.7-11.5,168.3-28.5c112.6-33.8,242.3-11.2,358.5-9
			c100.6,1.9,193.4,13.7,294-4c64.3-11.3,143.7-39.3,208.5-24.5c33.8,7.7,53.5,27.1,90.7,29.5"/>
		<path class="st0" d="M-48.6,418.4c71.8,5.1,138.4,31.9,209.2,41.7c63.1,8.7,120.9-11.8,180.9-27.7
			C459.3,400.9,593.5,415,714.6,417c95.2,1.6,181.7,16.2,277.7,2c64.1-9.5,133.9-28.5,198.8-19.5c33.5,4.6,60.4,17.9,95.3,18.9"/>
		<path class="st0" d="M-58.8,431c70.5,6,134.3,35.6,203.6,46.7c65.7,10.6,129.9-11.9,193-27c123-29.5,261.2-22.2,387.3-21.4
			c36.4,0.2,71.1,6.8,107.1,11.2c51.8,6.3,103.1,2.7,154.8-3.3c62.7-7.3,126.1-18.4,189.4-14.7c33.8,1.9,65.6,8.7,99.8,8.6"/>
		<path class="st0" d="M-68.1,443.8c69.3,6.8,130.6,39,198.5,51.4c67.9,12.3,138.3-12,204.1-26.4c64.7-14.2,127.9-15.4,193.7-18.3
			c68.5-3,137.6-8.9,206.2-8.6c34.5,0.2,66.3,7.7,100.1,12.9c48.9,7.5,98.6,4.2,147.6,0.1c95.2-8,189.4-8.2,284.7-11.1"/>
		<path class="st0" d="M-75.7,457c68.5,7.3,127.5,42,194.2,55.2c69.7,13.8,145.5-12.1,213.5-26c66.7-13.6,132.3-15.2,200-19.4
			c69.7-4.3,140.4-12.4,210.3-12c33,0.2,62.2,8.4,94.3,14.4c46.5,8.7,95,5.3,141.8,2.8c93.7-4.9,187.3-10.7,280.9-15.1"/>
		<path class="st0" d="M-81.9,473.7c68.1,7.4,124.7,44.6,190.6,58.5c71,15,151.8-12.4,221.5-25.7c68.3-13.1,135.6-14.9,204.6-20.1
			c70.7-5.4,142.7-15.5,213.7-15c32.2,0.2,58.4,9.1,89.3,15.7c44.7,9.4,92.3,5.7,137.6,4.9c55.4-1,112.3,2.5,167.3-2.9
			c37.3-3.7,72.5-13.4,110.2-15.3"/>
		<path class="st0" d="M-83.7,491.4c68.1,7,123.5,45.7,189.3,59.6c71.3,15.1,154.5-12.8,224.6-25.7c68.7-12.6,136.2-14.4,205.4-20.1
			c71.1-5.9,143.3-16.9,214.8-16.2c32.2,0.3,56.8,9.2,87.5,16.2c44.3,10.1,92,5.2,137,5.2c54.4-0.1,110.9,4.7,164.8-1.2
			c38.1-4.2,72.6-16.3,111.5-17.7"/>
		<path class="st0" d="M-80.6,510.2c67.3,7.5,123.9,43.3,189.2,57c70.6,14.8,154-11.4,223.9-22.7c68.4-11.1,135.9-13.1,204.6-19.4
			c69.5-6.4,140-18,210-17.2c32.9,0.4,57.7,9.6,89,16.9c44.4,10.3,92.5,5.6,137.6,4.9c54.8-0.9,111.3,3,165.7-2.5
			c39-3.9,75.3-15.4,114.9-16.9"/>
		<path class="st0" d="M-73.4,529.9c66.5,7,124.3,39.2,189.2,51.7c70.3,13.5,152.2-8.4,222.4-17.4c67-8.5,134.1-10,201.1-17.3
			c66.3-7.2,133.5-19.9,200.5-19.1c34.1,0.4,59.7,10.5,92.1,18.3c45.1,10.8,93.8,5.9,139.6,4.1c55.8-2.2,112.7-0.2,168.3-4.9
			c41.1-3.5,80.3-13.8,121.8-15.3"/>
		<path class="st0" d="M-63.2,550.3c65.7,5.9,124.7,33.8,189.1,44.4c70.4,11.6,149.7-4.5,220.4-10.2c65.1-5.3,130.8-5.6,195.6-14.2
			c62-8.2,124.7-22.4,187.5-21.8c35.5,0.4,62.6,11.5,96.2,20.2c46,11.9,96,6.1,142.7,2.9c57.4-3.9,115-4.2,172.3-8.2
			c44-3,86.9-11.8,131.2-13.2"/>
		<path class="st0" d="M-51.1,571.2c64.9,4.3,125,27.5,189.1,35.9c70.7,9.3,146.8-0.1,218-2c63.1-1.7,126.4-0.2,188.9-10.4
			c56.7-9.3,114.5-25.7,172.4-24.9c37.2,0.5,65.9,12.9,101,22.4c47.5,12.8,98.2,6.3,146.4,1.6c105.4-10.3,213.3-20.3,319.3-22.6"/>
		<path class="st0" d="M-38.3,592.2c64.2,2.7,125.4,20.9,189,26.9c71,6.7,144.1,4.4,215.4,6.6c61.3,1.9,121.3,6,181.6-6.4
			c51.4-10.6,103.3-28.6,156.4-28.2c39,0.3,69.5,14.6,106.1,24.8c49.2,13.6,100.5,6.5,150.4,0.2c111-14.1,224-22.4,336-23.9"/>
		<path class="st0" d="M-25.9,613.2c63.6,1.1,125.6,14.5,188.9,18.2c71.2,4.2,141.9,8.7,213,15.1c59.8,5.4,115.9,11.8,174.6-2.6
			c46.7-11.4,91.9-31.3,140.8-31.4c40.6-0.1,73.1,16.2,111.1,27c50.9,14.5,102.8,6.8,154.3-1.2c116.9-18.1,233.9-24.5,352.3-25.1"/>
		<path class="st0" d="M-14.9,633.8c133.3-0.1,267.9,14,399.6,33.1c58,8.4,111.8,17.9,168.6,0.8c42.4-12.8,81.5-33.8,126.9-34.3
			c41.9-0.4,76.4,17.7,115.6,29.1c52.5,15.3,104.7,7,157.6-2.4c122.4-21.8,242.3-26.3,366.7-26.3"/>
		<path class="st0" d="M-6.5,653.8c135.2-1.4,265.2,7.7,397.8,33c56,10.7,109.4,22.9,164.3,3.3c39.4-14.1,72.7-35.8,116-36.5
			c43-0.7,79,18.8,119,30.7c53.6,15.9,106,7.3,160.1-3.3c65.1-12.8,127.8-25.8,194.6-25.9c61-0.1,122.1-1.5,183.1-1.3"/>
		<path class="st0" d="M-1.8,672.9c62.9-0.5,125.8,0.8,188.8,0.7c72-0.1,138.3,17,208,32.6c54.4,12.2,109,26,162.5,4.6
			c38-15.2,66.5-37.1,109.4-37.8c43.7-0.8,80.4,19.5,121.1,31.7c54.1,16.2,106.7,7.5,161.2-3.8c65.7-13.7,128.5-27.6,196.1-27.6
			c62.6,0,125.3-0.3,187.9-0.2"/>
		<path class="st0" d="M-1.2,691.2c62.8-0.3,125.5,0.5,188.2,0.5c71.9-0.1,138.2,17,207.9,32.6c54.7,12.3,108.7,25.6,162.5,4.5
			c37.7-14.8,67.2-36.5,109.6-37.2c43.3-0.8,80.7,19.3,121.1,31.1c54.3,15.9,106.5,8.1,161.2-3.8c65.7-14.2,128.4-28.4,196.1-28.5
			c62.8-0.1,125.6,1.5,188.4,0.9"/>
		<path class="st0" d="M-1.2,709.3c61.9-0.4,123.7,2.4,185.6,2.7c71.1,0.3,138,15.4,207.4,29c56.3,11,108.3,21.6,163.8,3.9
			c38.9-12.4,74.4-32.3,116.4-33c41.6-0.7,79.4,17,118.8,27.2c54.6,14.2,106,7.3,160.5-5.2c65.5-15,127.9-30.6,195.7-30
			c62.3,0.6,124.3,6.1,186.7,5.4"/>
	</g>
	<g>
		<path class="st0" d="M1334.1,35.2c126.5,1.4,254.8,14,380.6,27c58.3,6,113.2,9.7,171.3,2c46.9-6.2,94.1-17.1,141.6-17.3
			c37.5-0.1,73.6,8,110.5,13c54.4,7.3,103.9,1.7,156.9-12.7c64.2-17.5,126.1-39.1,193.7-34c60.7,4.5,119.1,20.7,180.2,22.1"/>
		<path class="st0" d="M1334.1,53.3c57.1,1.5,112.8,12.9,169.6,16.5c67.4,4.3,135.5,4.5,203,7.6c112.1,5.1,222.1-6.3,333.9-6.6
			c89.6-0.2,171.8,12.5,259.8-13.7c63-18.8,125.3-44.4,192.4-36.3c59.8,7.2,115.5,29.4,176.2,32.6"/>
		<path class="st0" d="M1334.1,71.3c55.4,2.4,108.3,16.9,163.3,21.9c66.1,6,134.8,0.1,201.2-0.8c118.5-1.6,237,3.3,355.4,2.3
			c83.3-0.7,172.9-2.4,252-28.1c61.6-20.1,124.7-50,191-38.7c59.1,10.1,111.5,38.3,172,43.3"/>
		<path class="st0" d="M1334.1,89.4c53.9,3.1,104.1,20.8,157.3,27c65,7.6,134.5-4.1,199.5-8.7c126.6-9,249.5,11.4,375.7,10.8
			c32.8-0.2,63-8.2,94.9-13.7c51.5-8.9,99.4-10.1,149.7-27.9c60.2-21.2,124.3-55.2,189.7-41c58.6,12.8,107.4,46.7,168.1,53.5"/>
		<path class="st0" d="M1334.1,107.5c52.8,3.7,100.3,24.4,152.3,31.4c64.3,8.7,134.2-7.7,198.1-15.5c65.7-8,125-9.4,190.6-2.3
			c66.3,7.1,135.3,21,202.1,20.3c33.4-0.3,59.3-12.6,90.6-21.1c49.6-13.5,98.5-13.3,147.9-31.8c58.9-22.1,124.1-59.7,188.6-43.1
			c58.4,15,103.6,54,164.8,62.2"/>
		<path class="st0" d="M1334.1,125.6c52.3,3.8,97.5,26.8,148.5,34.6c64.1,9.8,134.1-10.3,197.2-20.6c67.4-11,125.6-12.1,193.1-3.1
			c68.9,9.2,141.8,27.3,211.7,26.2c34.8-0.5,56.2-15.2,87.5-26.5c47.6-17.2,98.1-15.3,146.7-34.4c58-22.8,123.9-62.9,188-44.8
			c58.4,16.5,100.4,59.8,162.3,68.5"/>
		<path class="st0" d="M1334.1,143.7c52.3,3.5,96,28,146.7,36.2c64.5,10.4,134-11.4,197.1-23.2c67.5-12.7,125.8-13.5,193.5-3.5
			c70.5,10.4,144.8,30.3,216.4,29.2c36.7-0.6,54-16,85.9-29.2c15.6-6.5,28.8-7.3,45.6-9.3c36.1-4.3,66.8-11.8,100.8-25.6
			c57.7-23.4,123.7-64.4,187.8-46c58.8,16.9,98.1,63.5,161.1,71.6"/>
	</g>
	<g>
		<path class="st0" d="M-1.2,35.2c126.5,1.4,254.8,14,380.6,27c58.3,6,113.2,9.7,171.3,2c46.9-6.2,94.1-17.1,141.6-17.3
			c37.5-0.1,73.6,8,110.5,13c54.4,7.3,103.9,1.7,156.9-12.7c64.2-17.5,126.1-39.1,193.7-34c60.7,4.5,119.1,20.7,180.2,22.1"/>
		<path class="st0" d="M-1.2,53.3c57.1,1.5,112.8,12.9,169.6,16.5c67.4,4.3,135.5,4.5,203,7.6c112.1,5.1,222.1-6.3,333.9-6.6
			C795,70.5,877.2,83.3,965.2,57c63-18.8,125.3-44.4,192.4-36.3c59.8,7.2,115.5,29.4,176.2,32.6"/>
		<path class="st0" d="M-1.2,71.3c55.4,2.4,108.3,16.9,163.3,21.9c66.1,6,134.8,0.1,201.2-0.8c118.5-1.6,237,3.3,355.4,2.3
			c83.3-0.7,172.9-2.4,252-28.1c61.6-20.1,124.7-50,191-38.7c59.1,10.1,111.5,38.3,172,43.3"/>
		<path class="st0" d="M-1.2,89.4c53.9,3.1,104.1,20.8,157.3,27c65,7.6,134.5-4.1,199.5-8.7c126.6-9,249.5,11.4,375.7,10.8
			c32.8-0.2,63-8.2,94.9-13.7c51.5-8.9,99.4-10.1,149.7-27.9c60.2-21.2,124.3-55.2,189.7-41c58.6,12.8,107.4,46.7,168.1,53.5"/>
		<path class="st0" d="M-1.2,107.5c52.8,3.7,100.3,24.4,152.3,31.4c64.3,8.7,134.2-7.7,198.1-15.5c65.7-8,125-9.4,190.6-2.3
			c66.3,7.1,135.3,21,202.1,20.3c33.4-0.3,59.3-12.6,90.6-21.1c49.6-13.5,98.5-13.3,147.9-31.8c58.9-22.1,124.1-59.7,188.6-43.1
			c58.4,15,103.6,54,164.8,62.2"/>
		<path class="st0" d="M-1.2,125.6c52.3,3.8,97.5,26.8,148.5,34.6c64.1,9.8,134.1-10.3,197.2-20.6c67.4-11,125.6-12.1,193.1-3.1
			c68.9,9.2,141.8,27.3,211.7,26.2c34.8-0.5,56.2-15.2,87.5-26.5c47.6-17.2,98.1-15.3,146.7-34.4c58-22.8,123.9-62.9,188-44.8
			c58.4,16.5,100.4,59.8,162.3,68.5"/>
		<path class="st0" d="M-1.2,143.7c52.3,3.5,96,28,146.7,36.2c64.5,10.4,134-11.4,197.1-23.2c67.5-12.7,125.8-13.5,193.5-3.5
			c70.5,10.4,144.8,30.3,216.4,29.2c36.7-0.6,54-16,85.9-29.2c15.6-6.5,28.8-7.3,45.6-9.3c36.1-4.3,66.8-11.8,100.8-25.6
			c57.7-23.4,123.7-64.4,187.8-46c58.8,16.9,98.1,63.5,161.1,71.6"/>
	</g>
</g>
</svg>
