<svg width="1200" height="1200" viewBox="0 0 1200 1200" fill="none" xmlns="http://www.w3.org/2000/svg">
<rect width="1200" height="1200" fill="#17184B"/>
<path d="M225.466 352V142.6H295.966C311.766 142.6 325.866 145.1 338.266 150.1C350.866 154.9 361.566 161.9 370.366 171.1C379.166 180.1 385.866 191 390.466 203.8C395.066 216.6 397.366 230.9 397.366 246.7C397.366 262.7 395.066 277.2 390.466 290.2C385.866 303 379.166 314.1 370.366 323.5C361.566 332.7 350.866 339.8 338.266 344.8C325.866 349.6 311.766 352 295.966 352H225.466ZM274.966 311.5H295.966C306.766 311.5 315.866 308.9 323.266 303.7C330.866 298.3 336.566 290.7 340.366 280.9C344.366 271.1 346.366 259.7 346.366 246.7C346.366 233.7 344.366 222.5 340.366 213.1C336.566 203.5 330.866 196.1 323.266 190.9C315.866 185.7 306.766 183.1 295.966 183.1H274.966V311.5ZM534.283 352L532.783 322V239.8C532.783 232 529.883 225.9 524.083 221.5C518.283 216.9 510.283 214.6 500.083 214.6C490.283 214.6 482.283 216.7 476.083 220.9C470.083 224.9 466.583 230.6 465.583 238H420.283C421.283 226.2 425.283 216.1 432.283 207.7C439.283 199.3 448.683 192.9 460.483 188.5C472.483 183.9 486.383 181.6 502.183 181.6C517.783 181.6 531.383 184 542.983 188.8C554.583 193.4 563.483 200.3 569.683 209.5C576.083 218.5 579.283 229.6 579.283 242.8V352H534.283ZM480.883 355.6C469.883 355.6 460.183 353.5 451.783 349.3C443.383 344.9 436.883 338.9 432.283 331.3C427.683 323.7 425.383 315.1 425.383 305.5C425.383 288.3 431.983 275 445.183 265.6C458.583 256 476.983 251.2 500.383 251.2H537.283V283.6L499.183 283.9C490.583 283.9 483.683 285.5 478.483 288.7C473.483 291.7 470.983 296.3 470.983 302.5C470.983 306.9 472.783 310.7 476.383 313.9C480.183 317.1 485.483 318.7 492.283 318.7C501.683 318.7 509.983 316.4 517.183 311.8C524.583 307 530.683 300.5 535.483 292.3L540.583 323.8C535.583 334.8 527.883 342.9 517.483 348.1C507.283 353.1 495.083 355.6 480.883 355.6ZM710.5 352C699.3 352 689.4 349.5 680.8 344.5C672.4 339.3 665.9 332.2 661.3 323.2C656.7 314 654.4 303.6 654.4 292V157.3L701.2 136.3V292C701.2 297.2 701.9 301.5 703.3 304.9C704.9 308.1 707.7 310.5 711.7 312.1C715.9 313.5 721.7 314.2 729.1 314.2H771.4V352H710.5ZM621.4 223V185.2H741.7V223H621.4ZM924.517 352L923.017 322V239.8C923.017 232 920.117 225.9 914.317 221.5C908.517 216.9 900.517 214.6 890.317 214.6C880.517 214.6 872.517 216.7 866.317 220.9C860.317 224.9 856.817 230.6 855.817 238H810.517C811.517 226.2 815.517 216.1 822.517 207.7C829.517 199.3 838.917 192.9 850.717 188.5C862.717 183.9 876.617 181.6 892.417 181.6C908.017 181.6 921.617 184 933.217 188.8C944.817 193.4 953.717 200.3 959.917 209.5C966.317 218.5 969.517 229.6 969.517 242.8V352H924.517ZM871.117 355.6C860.117 355.6 850.417 353.5 842.017 349.3C833.617 344.9 827.117 338.9 822.517 331.3C817.917 323.7 815.617 315.1 815.617 305.5C815.617 288.3 822.217 275 835.417 265.6C848.817 256 867.217 251.2 890.617 251.2H927.517V283.6L889.417 283.9C880.817 283.9 873.917 285.5 868.717 288.7C863.717 291.7 861.217 296.3 861.217 302.5C861.217 306.9 863.017 310.7 866.617 313.9C870.417 317.1 875.717 318.7 882.517 318.7C891.917 318.7 900.217 316.4 907.417 311.8C914.817 307 920.917 300.5 925.717 292.3L930.817 323.8C925.817 334.8 918.117 342.9 907.717 348.1C897.517 353.1 885.317 355.6 871.117 355.6ZM374.924 652V468.7C374.924 456.9 377.524 446.6 382.724 437.8C387.924 428.8 395.024 421.8 404.024 416.8C413.024 411.6 423.124 409 434.324 409H486.224V446.8H452.924C447.324 446.8 442.124 447.3 437.324 448.3C432.524 449.3 428.724 451.4 425.924 454.6C423.124 457.6 421.724 462.3 421.724 468.7V652H374.924ZM341.924 523V485.2H462.224V523H341.924ZM327.224 652V614.2H482.624V652H327.224ZM599.441 655.6C581.641 655.6 566.341 652.1 553.541 645.1C540.741 638.1 530.841 628.1 523.841 615.1C517.041 602.1 513.641 586.6 513.641 568.6C513.641 550.4 517.041 534.9 523.841 522.1C530.841 509.1 540.741 499.1 553.541 492.1C566.341 485.1 581.641 481.6 599.441 481.6C626.241 481.6 647.141 489.3 662.141 504.7C677.341 520.1 684.941 541.4 684.941 568.6C684.941 586.6 681.541 602.1 674.741 615.1C667.941 628.1 658.141 638.1 645.341 645.1C632.541 652.1 617.241 655.6 599.441 655.6ZM599.441 617.8C611.441 617.8 620.841 613.4 627.641 604.6C634.641 595.8 638.141 583.8 638.141 568.6C638.141 553.2 634.641 541.2 627.641 532.6C620.841 523.8 611.441 519.4 599.441 519.4C587.241 519.4 577.641 523.8 570.641 532.6C563.841 541.2 560.441 553.2 560.441 568.6C560.441 583.8 563.841 595.8 570.641 604.6C577.641 613.4 587.241 617.8 599.441 617.8ZM830.259 568.6V546.1C830.259 538.5 828.259 532.4 824.259 527.8C820.259 523 814.259 520.6 806.259 520.6C797.259 520.6 788.759 523.6 780.759 529.6C772.759 535.6 765.159 546 757.959 560.8L753.159 521.5C758.359 512.7 764.059 505.4 770.259 499.6C776.459 493.6 783.259 489.1 790.659 486.1C798.259 483.1 806.559 481.6 815.559 481.6C833.359 481.6 848.059 487.1 859.659 498.1C871.259 508.9 877.059 524.9 877.059 546.1V568.6H830.259ZM718.959 652V485.2H763.959L765.759 515.2V652H718.959ZM307.066 955.6C288.466 955.6 272.266 951.1 258.466 942.1C244.866 932.9 234.266 920.2 226.666 904C219.066 887.8 215.266 868.9 215.266 847.3C215.266 825.7 219.066 806.8 226.666 790.6C234.266 774.2 245.166 761.5 259.366 752.5C273.766 743.5 290.866 739 310.666 739C325.066 739 338.366 741.9 350.566 747.7C362.966 753.3 373.166 761.6 381.166 772.6C389.166 783.6 393.566 797 394.366 812.8H340.066C339.266 803.4 336.166 795.5 330.766 789.1C325.566 782.7 318.466 779.5 309.466 779.5C301.066 779.5 293.566 782.2 286.966 787.6C280.566 792.8 275.466 800.4 271.666 810.4C268.066 820.4 266.266 832.7 266.266 847.3C266.266 861.7 268.166 874 271.966 884.2C275.766 894.2 281.066 901.9 287.866 907.3C294.866 912.5 302.866 915.1 311.866 915.1C319.266 915.1 325.566 914.1 330.766 912.1C335.966 909.9 340.966 906.7 345.766 902.5V878.8L317.866 880.3L319.366 839.2H394.366V916.3C385.366 928.5 373.666 938.1 359.266 945.1C345.066 952.1 327.666 955.6 307.066 955.6ZM501.883 955.6C484.083 955.6 468.783 952.1 455.983 945.1C443.183 938.1 433.283 928.1 426.283 915.1C419.483 902.1 416.083 886.6 416.083 868.6C416.083 850.4 419.483 834.9 426.283 822.1C433.283 809.1 443.183 799.1 455.983 792.1C468.783 785.1 484.083 781.6 501.883 781.6C528.683 781.6 549.583 789.3 564.583 804.7C579.783 820.1 587.383 841.4 587.383 868.6C587.383 886.6 583.983 902.1 577.183 915.1C570.383 928.1 560.583 938.1 547.783 945.1C534.983 952.1 519.683 955.6 501.883 955.6ZM501.883 917.8C513.883 917.8 523.283 913.4 530.083 904.6C537.083 895.8 540.583 883.8 540.583 868.6C540.583 853.2 537.083 841.2 530.083 832.6C523.283 823.8 513.883 819.4 501.883 819.4C489.683 819.4 480.083 823.8 473.083 832.6C466.283 841.2 462.883 853.2 462.883 868.6C462.883 883.8 466.283 895.8 473.083 904.6C480.083 913.4 489.683 917.8 501.883 917.8ZM697 955.6C679.2 955.6 663.9 952.1 651.1 945.1C638.3 938.1 628.4 928.1 621.4 915.1C614.6 902.1 611.2 886.6 611.2 868.6C611.2 850.4 614.6 834.9 621.4 822.1C628.4 809.1 638.3 799.1 651.1 792.1C663.9 785.1 679.2 781.6 697 781.6C723.8 781.6 744.7 789.3 759.7 804.7C774.9 820.1 782.5 841.4 782.5 868.6C782.5 886.6 779.1 902.1 772.3 915.1C765.5 928.1 755.7 938.1 742.9 945.1C730.1 952.1 714.8 955.6 697 955.6ZM697 917.8C709 917.8 718.4 913.4 725.2 904.6C732.2 895.8 735.7 883.8 735.7 868.6C735.7 853.2 732.2 841.2 725.2 832.6C718.4 823.8 709 819.4 697 819.4C684.8 819.4 675.2 823.8 668.2 832.6C661.4 841.2 658 853.2 658 868.6C658 883.8 661.4 895.8 668.2 904.6C675.2 913.4 684.8 917.8 697 917.8ZM880.717 781.6C890.317 781.6 899.317 783.4 907.717 787C916.117 790.4 923.117 795.1 928.717 801.1V730H975.217V952H930.217L929.317 935.2C923.717 941.4 916.717 946.4 908.317 950.2C899.917 953.8 890.717 955.6 880.717 955.6C866.317 955.6 853.517 951.7 842.317 943.9C831.117 936.1 822.317 925.6 815.917 912.4C809.517 899.2 806.317 884.6 806.317 868.6C806.317 852.4 809.517 837.7 815.917 824.5C822.317 811.3 831.117 800.9 842.317 793.3C853.517 785.5 866.317 781.6 880.717 781.6ZM892.717 917.2C901.117 917.2 908.517 914.6 914.917 909.4C921.317 904 925.917 897 928.717 888.4V848.5C925.917 839.7 921.317 832.8 914.917 827.8C908.517 822.6 901.117 820 892.717 820C885.117 820 878.317 822.2 872.317 826.6C866.317 830.8 861.617 836.6 858.217 844C854.817 851.2 853.117 859.4 853.117 868.6C853.117 877.6 854.817 885.8 858.217 893.2C861.617 900.4 866.317 906.2 872.317 910.6C878.317 915 885.117 917.2 892.717 917.2Z" fill="#E2C9FF"/>
<path d="M484.6 1063.74V1016.64C505.6 1030.24 526 1039.44 545.8 1044.24C565.6 1049.24 584.9 1051.74 603.7 1051.74C622.7 1051.74 642.1 1049.24 661.9 1044.24C681.9 1039.44 702.4 1030.24 723.4 1016.64V1063.74C701.8 1076.94 681.5 1086.04 662.5 1091.04C643.7 1096.24 624.1 1098.84 603.7 1098.84C583.7 1098.84 564.2 1096.24 545.2 1091.04C526.4 1086.04 506.2 1076.94 484.6 1063.74Z" fill="#E2C9FF"/>
</svg>
