<svg width="1032" height="1032" viewBox="0 0 1032 1032" fill="none" xmlns="http://www.w3.org/2000/svg">
<g clip-path="url(#clip0_36_2)">
<circle cx="516" cy="516" r="516" fill="#FF2A00"/>
<path fill-rule="evenodd" clip-rule="evenodd" d="M181.833 387H133.012V436.899H104V476.718H133.012V563.832C133.012 577.769 136.977 588.877 144.794 596.845C152.608 604.818 162.815 608.86 175.134 608.86H225.691V569.044H196.727C190.697 569.044 186.671 568.002 184.754 565.946C183.421 564.521 181.833 561.088 181.833 552.819V476.718H225.691V436.899H181.833V387Z" fill="#212121"/>
<path fill-rule="evenodd" clip-rule="evenodd" d="M479.732 440.293C470.539 435.61 460.645 433.235 450.323 433.235C438.891 433.235 428.158 435.604 418.419 440.278C409.316 444.648 401.374 452.126 394.775 462.523C389.596 453.006 382.681 445.777 374.191 441.012C364.986 435.851 354.845 433.235 344.052 433.235C332.827 433.235 323.212 435.264 315.478 439.265C308.888 442.678 302.786 447.928 297.293 454.905L296.72 437.02H247.951V608.984H296.772V512.678C296.772 503.306 298.035 495.414 300.53 489.224C302.972 483.153 306.508 478.548 311.04 475.535C315.583 472.519 321.354 470.99 328.197 470.99C336.302 470.99 342.675 473.998 347.681 480.188C352.692 486.395 355.235 497.326 355.235 512.678V608.984H404.053V504.075C404.053 497.289 405.46 491.313 408.229 486.315C410.988 481.332 414.692 477.492 419.24 474.906C423.803 472.307 428.813 470.99 434.13 470.99C442.699 470.99 449.411 474.008 454.647 480.215C459.87 486.414 462.517 497.336 462.517 512.678V608.984H511.337V505.795C511.337 488.843 508.375 474.737 502.533 463.87C496.665 452.954 488.994 445.023 479.732 440.293Z" fill="#212121"/>
<path fill-rule="evenodd" clip-rule="evenodd" d="M584.672 463.219V437.388H535.854V609.352H584.672V536.448C584.672 514.55 589.267 499.04 598.326 490.346C607.415 481.628 618.615 477.207 631.617 477.207H647.087V435.668H631.278C619.771 435.668 609.712 438.42 601.383 443.846C594.719 448.189 589.118 454.69 584.672 463.219Z" fill="#212121"/>
<path fill-rule="evenodd" clip-rule="evenodd" d="M886.417 436.885L854.267 554.144L822.443 436.885H772.723L740.565 554.175L708.409 436.885H658.031L711.705 608.849H766.105L797.573 492.035L828.717 608.849H883.115L937.819 436.885H886.417Z" fill="#212121"/>
</g>
<defs>
<clipPath id="clip0_36_2">
<path d="M0 5C0 2.23858 2.23858 0 5 0H1027C1029.76 0 1032 2.23858 1032 5V1027C1032 1029.76 1029.76 1032 1027 1032H5C2.23858 1032 0 1029.76 0 1027V5Z" fill="white"/>
</clipPath>
</defs>
</svg>
