<svg width="256" height="256" viewBox="0 0 256 256" fill="none" xmlns="http://www.w3.org/2000/svg">
<g clip-path="url(#clip0_3891_508)">
<path d="M0 94.5231C0 61.4369 0 44.8938 6.439 32.2566C12.1029 21.1405 21.1405 12.1029 32.2566 6.439C44.8938 0 61.4369 0 94.5231 0H161.477C194.563 0 211.106 0 223.743 6.439C234.859 12.1029 243.897 21.1405 249.561 32.2566C256 44.8938 256 61.4369 256 94.5231V161.477C256 194.563 256 211.106 249.561 223.743C243.897 234.859 234.859 243.897 223.743 249.561C211.106 256 194.563 256 161.477 256H94.5231C61.4369 256 44.8938 256 32.2566 249.561C21.1405 243.897 12.1029 234.859 6.439 223.743C0 211.106 0 194.563 0 161.477V94.5231Z" fill="#9F3A28"/>
<path fill-rule="evenodd" clip-rule="evenodd" d="M221.652 84.6089C220.916 81.7487 219.946 78.9698 218.644 76.3141C218.13 75.2667 217.325 74.5825 216.158 74.3885C214.365 74.0909 212.939 75.0426 212.319 76.9786C211.185 80.5152 209.942 84.0046 208.245 87.3223C205.685 92.3269 202.076 96.2358 197.006 98.8312C191.684 101.555 186.177 103.785 180.519 105.684C179.019 106.187 177.695 106.08 176.315 105.324C173.093 103.558 169.712 102.141 166.245 100.93C159.842 98.6935 153.256 97.3146 146.502 96.7496C141.481 96.3301 136.461 96.4036 131.45 96.9108C126.958 97.3657 122.57 98.3055 118.321 99.8549C118.112 99.9309 117.781 99.9152 117.608 99.7959C117.386 99.6443 117.164 99.4934 116.943 99.3424L116.942 99.3422C115.9 98.6333 114.856 97.9234 113.88 97.1324C108.124 92.4685 103.57 86.773 99.8539 80.4051C97.0959 75.677 95.2018 70.6435 94.9226 65.0948C94.8571 63.7919 94.1125 62.8664 92.9354 62.3002C92.802 62.2362 92.6725 62.1646 92.5427 62.093L92.5427 62.0929L92.5424 62.0928C92.4861 62.0617 92.4298 62.0305 92.3731 62H90.8001C90.6129 62.1153 90.4215 62.2255 90.2301 62.3357L90.23 62.3357C89.8211 62.5711 89.4119 62.8066 89.0423 63.0932C80.2337 69.9225 76.8177 80.5493 79.4786 91.488C81.0215 97.8297 84.25 103.312 88.3227 108.336C89.0908 109.282 90.1604 109.341 91.0714 108.515C91.7019 107.943 92.318 107.354 92.9223 106.754C93.7245 105.957 93.7756 105.067 93.0927 104.171C92.935 103.965 92.7748 103.761 92.6146 103.557L92.6146 103.556L92.6145 103.556C92.3165 103.176 92.0186 102.797 91.7373 102.404C88.4118 97.7786 85.7784 92.8447 85.0981 87.0771C84.6026 82.8786 85.1846 78.8479 87.101 75.0452C87.4746 74.3046 88.033 73.8157 88.9034 73.872C89.7659 73.9271 90.2732 74.4514 90.5471 75.251C90.7883 75.9523 91.0387 76.6522 91.3257 77.3352C95.0917 86.2854 100.807 93.837 107.909 100.386C108.587 101.011 109.301 101.599 110.014 102.185C110.34 102.453 110.665 102.721 110.987 102.992C110.979 103.011 110.973 103.031 110.967 103.049L110.967 103.05C110.957 103.085 110.948 103.114 110.929 103.125C110.675 103.274 110.42 103.421 110.165 103.567C109.891 103.725 109.618 103.882 109.345 104.042C99.8303 109.61 92.2643 117.196 86.2712 126.396C85.7037 127.268 85.022 127.917 84.0783 128.373C82.7334 129.022 81.4091 129.715 80.0851 130.407L80.0847 130.407L80.0826 130.408C79.5505 130.686 79.0184 130.964 78.485 131.24C63.7201 138.865 50.6368 148.735 39.1397 160.72C36.8379 163.119 34.6161 165.584 33.0969 168.586C32.4467 169.869 31.9748 171.223 32.001 172.661C32.0784 176.653 35.2663 179.488 39.2328 179.093C40.1326 179.004 41.0238 178.824 41.9149 178.645C42.3297 178.561 42.7444 178.477 43.16 178.403C43.2912 178.379 43.4228 178.359 43.5919 178.332L43.594 178.332C43.7015 178.315 43.8241 178.295 43.9714 178.272C43.8709 178.454 43.7795 178.615 43.6954 178.763L43.6954 178.763C43.5382 179.041 43.4067 179.272 43.2897 179.512C43.0579 179.988 42.812 180.46 42.5662 180.932C41.9935 182.032 41.4209 183.132 41.0247 184.291C39.5382 188.644 41.8256 192.616 46.2771 193.664C46.6259 193.747 46.9766 193.822 47.3274 193.897L47.3294 193.898L47.3339 193.899C47.4898 193.932 47.6457 193.966 47.8016 194H50.6853C50.7206 193.992 50.7558 193.984 50.791 193.975C50.8278 193.967 50.8645 193.958 50.9012 193.949C51.0175 193.922 51.1337 193.894 51.2503 193.869C51.8852 193.733 52.523 193.607 53.1607 193.481C54.5572 193.206 55.9538 192.93 57.3207 192.548C61.6922 191.326 65.7597 189.354 69.7799 187.277C74.5644 184.805 79.4681 182.637 84.8333 181.736C88.1641 181.176 91.4778 181.208 94.7889 181.964C95.4853 182.123 96.1815 182.285 96.8779 182.448L96.8785 182.448C99.6249 183.088 102.374 183.729 105.152 184.175C111.846 185.25 118.553 185.223 125.214 183.789C131.692 182.393 137.465 179.615 142.277 174.996C142.845 174.451 143.428 174.238 144.203 174.246C150.033 174.304 155.74 173.477 161.307 171.741C169.386 169.222 176.304 164.945 181.616 158.255C183.484 155.903 185.04 153.353 186.327 150.641C186.931 149.368 186.488 148.261 185.185 147.701C184.804 147.537 184.421 147.379 184.038 147.221C183.897 147.163 183.755 147.104 183.613 147.045C182.047 146.397 181.184 146.736 180.437 148.268C178.971 151.273 177.107 154.007 174.789 156.419C169.143 162.295 162.083 165.44 154.217 166.995C150.736 167.683 147.215 167.965 143.662 167.933C141.539 167.915 139.709 168.676 138.168 170.169C137.322 170.987 136.423 171.762 135.48 172.465C130.624 176.09 125.048 177.75 119.101 178.312C112.014 178.981 105.039 178.19 98.2141 176.295C92.3508 174.668 86.5426 174.685 80.678 176.152C75.6419 177.412 70.9518 179.522 66.3731 181.899C62.4106 183.955 58.3654 185.794 54.02 186.895C52.0905 187.384 50.1414 187.787 48.1306 187.584C46.9194 187.462 46.6507 187.064 47.1278 185.937C47.3824 185.335 47.6882 184.755 47.9942 184.175C48.2175 183.751 48.4409 183.327 48.6444 182.895C48.7925 182.58 48.9464 182.266 49.1004 181.951C49.5816 180.97 50.0639 179.986 50.3747 178.952C51.3027 175.871 49.6668 172.854 46.7542 172.036C45.3726 171.648 43.9819 171.778 42.6003 172.053C42.1379 172.145 41.6762 172.243 41.2145 172.341C40.48 172.496 39.7454 172.652 39.0073 172.785C38.3978 172.895 38.1907 172.667 38.4175 172.094C38.6888 171.411 38.9824 170.694 39.4412 170.137L39.7678 169.739C41.127 168.084 42.4912 166.423 43.9937 164.904C49.2946 159.544 54.7371 154.327 60.7786 149.79C68.941 143.661 77.7457 138.58 86.8795 134.059C88.8365 133.091 90.3767 131.738 91.5525 129.895C95.7419 123.329 100.942 117.683 107.185 113.021C113.568 108.255 120.63 104.992 128.525 103.706C136.643 102.385 144.765 102.546 152.849 104C160.484 105.373 167.763 107.806 174.579 111.564C176.388 112.562 178.361 112.896 180.349 112.313C187.531 110.205 194.456 107.462 201.017 103.823C204.52 101.88 207.614 99.4669 210.018 96.2449C210.801 95.1957 211.516 94.0966 212.231 92.998C212.457 92.6514 212.682 92.3048 212.91 91.9599C213.728 90.7199 215.308 90.5167 216.167 91.6217C216.456 91.9914 216.626 92.5275 216.667 93.002C216.907 95.7966 216.831 98.5861 216.389 101.362C215.685 105.782 214.146 109.822 211.173 113.255C208.161 116.734 204.533 119.435 200.594 121.747C195.012 125.024 189.061 127.453 182.894 129.374C181.411 129.836 180.917 130.706 181.292 132.22C181.36 132.496 181.429 132.771 181.497 133.047C181.566 133.322 181.634 133.597 181.702 133.872C182.073 135.371 183.109 136.006 184.556 135.483C185.42 135.171 186.286 134.863 187.152 134.556C190.05 133.527 192.95 132.497 195.771 131.289C201.903 128.665 207.583 125.268 212.61 120.819C218.827 115.316 222.13 108.395 222.934 100.197C223.45 94.9223 222.972 89.7302 221.656 84.6089H221.652ZM146.837 120.833C140.102 121.069 134.224 123.544 129.076 127.808C126.411 130.014 124.307 132.663 123.165 135.984C121.402 141.109 123.705 145.956 128.781 147.849C130.647 148.545 132.582 148.803 134.826 148.805C134.896 148.801 134.981 148.798 135.079 148.793C135.377 148.78 135.787 148.762 136.197 148.739C136.415 148.727 136.632 148.706 136.85 148.68C142.572 147.998 147.654 145.782 152.135 142.198C154.902 139.985 157.161 137.347 158.41 133.966C160.331 128.766 158.097 123.817 152.94 121.807C150.978 121.043 148.926 120.758 146.837 120.832V120.833ZM152.219 132.387C151.258 134.456 149.721 136.058 147.946 137.436C144.108 140.414 139.791 142.18 135.343 142.472C133.506 142.488 132.119 142.387 130.806 141.828C129.169 141.131 128.605 140.035 129.048 138.314C129.491 136.593 130.514 135.206 131.726 133.96C134.66 130.943 138.234 129.011 142.256 127.881C144.738 127.184 147.255 126.842 149.818 127.461C152.588 128.129 153.417 129.812 152.221 132.388L152.219 132.387ZM69.3889 167.267C73.2637 165.197 77.0113 162.906 80.3106 159.967L80.3119 159.965C80.9752 159.374 81.5886 158.7 82.1011 157.976C82.8522 156.916 82.5311 156.048 81.2347 155.927C79.8846 155.802 78.4558 155.79 77.1476 156.094C74.7541 156.651 72.4051 157.423 70.0745 158.212C68.4045 158.778 67.5577 158.511 66.8066 156.908C66.7134 156.709 66.6188 156.511 66.5242 156.313C66.374 155.999 66.2238 155.685 66.0791 155.368C65.539 154.185 65.9205 152.996 67.1369 152.561C69.537 151.704 71.9489 150.855 74.408 150.191C75.5804 149.876 76.7948 149.712 78.0091 149.549C78.549 149.477 79.0889 149.404 79.625 149.318C81.5283 149.449 83.353 149.697 85.0308 150.617C88.3616 152.445 89.6829 156.408 88.0876 159.852C86.9879 162.226 85.1999 164.05 83.2468 165.72C79.0509 169.308 74.3005 172.035 69.3981 174.506C67.4767 175.474 65.5222 176.377 63.5682 177.28C63.0653 177.512 62.5624 177.744 62.0602 177.978C60.7533 178.585 59.6915 178.168 59.1174 176.864C58.8618 176.284 58.6232 175.698 58.386 175.111C57.8354 173.747 58.2273 172.805 59.5408 172.162C60.3601 171.761 61.1813 171.363 62.0026 170.965C64.4816 169.765 66.9608 168.564 69.3889 167.267Z" fill="white"/>
</g>
<defs>
<clipPath id="clip0_3891_508">
<rect width="256" height="256" fill="white"/>
</clipPath>
</defs>
</svg>
