<svg xmlns="http://www.w3.org/2000/svg" viewBox="0 0 522 180"><defs><style>.cls-1{fill:#2a459a;}</style></defs><title>Asset 4</title><g id="Layer_2" data-name="Layer 2"><g id="Artwork"><path class="cls-1" d="M0,136v-4.45c11.65-.83,15-4.75,15-17.13V24.9C15,12.52,11.65,8.61,0,7.77V3.32H71c30,0,45.19,9.87,45.19,29.33C116.21,45,109.4,53,94.77,57.74l-1.67.55,1.71.42c22,5.45,34.7,19.75,34.7,39.23a37.57,37.57,0,0,1-15,29.62c-8,5.82-18.76,8.42-35,8.42ZM61.57,62.37a37,37,0,0,0-4.68.2l-.44.06v42.48c0,14.89.93,23.94,13.8,23.94,7.24,0,19.39-4.2,19.39-32.28C89.64,74.59,79.68,62.37,61.57,62.37Zm-.19-51.72a35.26,35.26,0,0,0-4.49.2l-.44.05V56.6H58.3c16.91,0,24.79-7.12,24.79-22.4C83.09,18.57,75.79,10.65,61.38,10.65Z"/><path class="cls-1" d="M184.38,140.05a46,46,0,0,1-35.86-16.67c-7.34-8.7-11.06-19.41-11.06-31.84a53.86,53.86,0,0,1,10.89-33.4C156.28,47.25,171,39.94,185,39.94c24,0,39.58,15.86,39.79,40.45H170.18v.52c.75,22.58,16.38,39.61,36.36,39.61a23.71,23.71,0,0,0,17.82-7.36v7.45C213.73,133.33,199.91,140.05,184.38,140.05Zm1.35-94c-10.88,0-15.73,8.64-15.73,28v.5h9.18c13.18,0,19.2,0,19.2-11.15C198.38,51.94,194.12,46.1,185.73,46.1Z"/><path class="cls-1" d="M340.85,135.93v-4.42h.08c8.57,0,12.07-4.13,12.07-14.25V77.16c0-4.14-.38-6.39-2.62-8.79l-.31-.34-.07.06-7.77-6.46,46-22.17v77.8c0,9.73,3.25,13.89,11.18,14.24v4.43Z"/><path class="cls-1" d="M388.51,38.7l.23,0v0Z"/><path class="cls-1" d="M368.88,37a18.24,18.24,0,0,1-18.39-18.49,18.39,18.39,0,1,1,36.78,0A18.24,18.24,0,0,1,368.88,37Z"/><path class="cls-1" d="M474.61,136V89.1l0-.5V65a11.19,11.19,0,0,0-3.76-8.36,8.69,8.69,0,0,0-4.83-2.5,10.91,10.91,0,0,0-2.52-.3,12.55,12.55,0,0,0-1.3.08,8.48,8.48,0,0,0-7,3.65A11.12,11.12,0,0,0,452.61,63v54.27c0,9.73,3.25,13.89,11.18,14.24v4.43H405.21v-4.42h.08c8.57,0,12.07-4.13,12.07-14.25V73.89c0-4.14-.38-6.39-2.62-8.79l-.31-.33-.07,0-7.77-6.46,46-22.17v15.7l.86-.89c6.92-7.21,15.75-10.87,26.24-10.87,20.29,0,30.15,10.29,30.15,31.46v45.72c0,10.13,3.5,14.26,12.07,14.26H522V136Z"/><path class="cls-1" d="M0,180V162.1H293.15c1.85,0,3.53,0,3.75,0,3.44-.22,8.05-1.21,10.43-4.68a8.94,8.94,0,0,0,1.17-7.21,7.4,7.4,0,0,0-3.87-4.9,16,16,0,0,0-7.19-1.48c-4.69,0-9.77,1.4-13.13,2.33a76,76,0,0,1-20.08,3.08c-7.73,0-14.51-1.76-20.14-5.23-9.2-5.68-13.3-17.79-9.75-28.8a23.5,23.5,0,0,1,6.4-10c1.43-1.33,8.3-6.71,10.55-6.71a.59.59,0,0,1,.3.06l.54-.84c-8.55-5.61-13.26-14.13-13.26-24,0-20,19-34,46.15-34a54.29,54.29,0,0,1,10.69,1.16l.42.08.15-.4c4.12-10.71,12.81-17.11,23.25-17.11,7.53,0,13,4.84,13,11.51a9.63,9.63,0,0,1-9.72,10c-3.64,0-6.84-1.9-9.66-3.56-2.46-1.46-4.78-2.84-7.11-2.84a4.94,4.94,0,0,0-4.68,2.78l-.29.53.57.19c16.8,5.76,25.68,16.44,25.69,30.91,0,19.62-18.47,32.81-46,32.81a65.89,65.89,0,0,1-22.39-4l-.13,0-.13,0c-6.2,1.17-10,4.7-10,9.22,0,3.21,1.2,5.6,3.55,7.08a14.61,14.61,0,0,0,7.81,1.79,44.81,44.81,0,0,0,10.55-1.48c3.31-.82,6.64-1.86,9.86-2.87,6.88-2.16,14-4.39,21.24-4.53h.88c8.59,0,16.4,2.59,22,7.31,6,5,9.14,12.17,9.14,20.6A32.61,32.61,0,0,1,325,161.26l-.77.84H522V180ZM283.09,45.52c-11.78,0-14.19,10.89-14.19,27.23,0,18.94,4.11,26.66,14.19,26.66S297.28,91.74,297.28,73C297.28,53.46,293.17,45.52,283.09,45.52Z"/></g></g></svg>